<?xml version="1.0" standalone="no"?>
<!DOCTYPE svg PUBLIC "-//W3C//DTD SVG 20010904//EN"
 "http://www.w3.org/TR/2001/REC-SVG-20010904/DTD/svg10.dtd">
<svg version="1.0" xmlns="http://www.w3.org/2000/svg"
 width="2560.000000pt" height="2560.000000pt" viewBox="0 0 2560.000000 2560.000000"
 preserveAspectRatio="xMidYMid meet">
<metadata>
Created by potrace 1.14, written by Peter Selinger 2001-2017
</metadata>
<g transform="translate(0.000000,2560.000000) scale(0.100000,-0.100000)"
fill="#000000" stroke="none">
<path d="M8380 19233 c-219 -34 -384 -79 -555 -153 -641 -275 -1136 -860
-1305 -1545 -80 -320 -75 -199 -75 -1960 l0 -1570 6355 0 6355 0 3 1430 c1
838 -1 1507 -7 1615 -16 306 -69 544 -178 806 -139 332 -339 614 -599 845
-294 260 -615 422 -1017 511 l-102 23 -4425 1 c-2434 1 -4436 0 -4450 -3z"/>
<path d="M12788 13182 l-6 -22 -4011 0 -4011 0 0 -1470 0 -1470 8045 0 8045 0
0 1470 0 1470 -4014 0 -4014 0 -14 22 -15 22 -5 -22z"/>
<path d="M6447 9283 c-4 -3 -7 -665 -7 -1470 l0 -1463 6360 0 6360 0 -2 1468
-3 1467 -6351 3 c-3493 1 -6354 -1 -6357 -5z"/>
</g>
</svg>
